<mxfile host="app.diagrams.net" modified="2023-04-11T10:48:10.825Z" agent="Mozilla/5.0 (Windows NT 10.0; Win64; x64) AppleWebKit/537.36 (KHTML, like Gecko) Chrome/111.0.0.0 Safari/537.36" etag="hptUWAmcTOdSz_EZix4E" version="21.1.5" type="github">
  <diagram id="0aB3pxDlRUvHCvndAp1d" name="Page-1">
    <mxGraphModel dx="1221" dy="629" grid="1" gridSize="10" guides="1" tooltips="1" connect="1" arrows="1" fold="1" page="1" pageScale="1" pageWidth="850" pageHeight="1100" math="0" shadow="0">
      <root>
        <mxCell id="0" />
        <mxCell id="1" parent="0" />
        <mxCell id="J-o4-fwsyyXXSoqCmSlc-1" value="&lt;font style=&quot;font-size: 24px;&quot;&gt;&lt;b style=&quot;font-size: 24px&quot;&gt;0&lt;/b&gt;&lt;/font&gt;" style="ellipse;whiteSpace=wrap;html=1;aspect=fixed;strokeWidth=3;fontSize=24;" parent="1" vertex="1">
          <mxGeometry x="160" y="80" width="40" height="40" as="geometry" />
        </mxCell>
        <mxCell id="J-o4-fwsyyXXSoqCmSlc-2" value="&lt;font style=&quot;font-size: 24px;&quot;&gt;&lt;b style=&quot;font-size: 24px&quot;&gt;2&lt;/b&gt;&lt;/font&gt;" style="ellipse;whiteSpace=wrap;html=1;aspect=fixed;strokeWidth=3;fontSize=24;" parent="1" vertex="1">
          <mxGeometry x="290" y="80" width="40" height="40" as="geometry" />
        </mxCell>
        <mxCell id="J-o4-fwsyyXXSoqCmSlc-3" value="&lt;b style=&quot;font-size: 24px;&quot;&gt;&lt;font style=&quot;font-size: 24px;&quot;&gt;4&lt;/font&gt;&lt;/b&gt;" style="ellipse;whiteSpace=wrap;html=1;aspect=fixed;strokeWidth=3;fontSize=24;" parent="1" vertex="1">
          <mxGeometry x="420" y="80" width="40" height="40" as="geometry" />
        </mxCell>
        <mxCell id="J-o4-fwsyyXXSoqCmSlc-6" value="&lt;b style=&quot;font-size: 24px;&quot;&gt;6&lt;/b&gt;" style="ellipse;whiteSpace=wrap;html=1;aspect=fixed;strokeWidth=3;fontSize=24;" parent="1" vertex="1">
          <mxGeometry x="540" y="80" width="40" height="40" as="geometry" />
        </mxCell>
        <mxCell id="J-o4-fwsyyXXSoqCmSlc-7" value="&lt;b style=&quot;font-size: 24px;&quot;&gt;3&lt;/b&gt;" style="ellipse;whiteSpace=wrap;html=1;aspect=fixed;strokeWidth=3;fontSize=24;" parent="1" vertex="1">
          <mxGeometry x="160" y="190" width="40" height="40" as="geometry" />
        </mxCell>
        <mxCell id="J-o4-fwsyyXXSoqCmSlc-8" value="&lt;b style=&quot;font-size: 24px;&quot;&gt;5&lt;/b&gt;" style="ellipse;whiteSpace=wrap;html=1;aspect=fixed;strokeWidth=3;fontSize=24;" parent="1" vertex="1">
          <mxGeometry x="160" y="280" width="40" height="40" as="geometry" />
        </mxCell>
        <mxCell id="J-o4-fwsyyXXSoqCmSlc-9" value="&lt;b style=&quot;font-size: 24px;&quot;&gt;7&lt;/b&gt;" style="ellipse;whiteSpace=wrap;html=1;aspect=fixed;strokeWidth=3;fontSize=24;" parent="1" vertex="1">
          <mxGeometry x="290" y="280" width="40" height="40" as="geometry" />
        </mxCell>
        <mxCell id="J-o4-fwsyyXXSoqCmSlc-10" value="&lt;b style=&quot;font-size: 24px;&quot;&gt;9&lt;/b&gt;" style="ellipse;whiteSpace=wrap;html=1;aspect=fixed;strokeWidth=3;fontSize=24;" parent="1" vertex="1">
          <mxGeometry x="420" y="280" width="40" height="40" as="geometry" />
        </mxCell>
        <mxCell id="J-o4-fwsyyXXSoqCmSlc-11" value="&lt;b style=&quot;font-size: 24px;&quot;&gt;8&lt;/b&gt;" style="ellipse;whiteSpace=wrap;html=1;aspect=fixed;strokeWidth=3;fontSize=24;" parent="1" vertex="1">
          <mxGeometry x="290" y="190" width="40" height="40" as="geometry" />
        </mxCell>
        <mxCell id="J-o4-fwsyyXXSoqCmSlc-12" value="&lt;b style=&quot;font-size: 24px;&quot;&gt;7&lt;/b&gt;" style="ellipse;whiteSpace=wrap;html=1;aspect=fixed;strokeWidth=3;fontSize=24;" parent="1" vertex="1">
          <mxGeometry x="420" y="190" width="40" height="40" as="geometry" />
        </mxCell>
        <mxCell id="J-o4-fwsyyXXSoqCmSlc-13" value="&lt;b style=&quot;font-size: 24px;&quot;&gt;&lt;font style=&quot;font-size: 24px;&quot;&gt;9&lt;/font&gt;&lt;/b&gt;" style="ellipse;whiteSpace=wrap;html=1;aspect=fixed;strokeWidth=3;fontSize=24;" parent="1" vertex="1">
          <mxGeometry x="540" y="190" width="40" height="40" as="geometry" />
        </mxCell>
        <mxCell id="J-o4-fwsyyXXSoqCmSlc-15" value="&lt;b style=&quot;font-size: 24px;&quot;&gt;1&lt;/b&gt;" style="ellipse;whiteSpace=wrap;html=1;aspect=fixed;strokeWidth=3;fontSize=24;" parent="1" vertex="1">
          <mxGeometry x="540" y="280" width="40" height="40" as="geometry" />
        </mxCell>
        <mxCell id="J-o4-fwsyyXXSoqCmSlc-17" value="&lt;b style=&quot;font-size: 24px;&quot;&gt;7&lt;/b&gt;" style="ellipse;whiteSpace=wrap;html=1;aspect=fixed;strokeWidth=3;fontSize=24;" parent="1" vertex="1">
          <mxGeometry x="160" y="370" width="40" height="40" as="geometry" />
        </mxCell>
        <mxCell id="J-o4-fwsyyXXSoqCmSlc-18" value="&lt;b style=&quot;font-size: 24px;&quot;&gt;9&lt;/b&gt;" style="ellipse;whiteSpace=wrap;html=1;aspect=fixed;strokeWidth=3;fontSize=24;" parent="1" vertex="1">
          <mxGeometry x="290" y="370" width="40" height="40" as="geometry" />
        </mxCell>
        <mxCell id="J-o4-fwsyyXXSoqCmSlc-19" value="&lt;b style=&quot;font-size: 24px;&quot;&gt;1&lt;/b&gt;" style="ellipse;whiteSpace=wrap;html=1;aspect=fixed;strokeWidth=3;fontSize=24;" parent="1" vertex="1">
          <mxGeometry x="420" y="370" width="40" height="40" as="geometry" />
        </mxCell>
        <mxCell id="J-o4-fwsyyXXSoqCmSlc-20" value="&lt;b style=&quot;font-size: 24px;&quot;&gt;3&lt;/b&gt;" style="ellipse;whiteSpace=wrap;html=1;aspect=fixed;strokeWidth=3;fontSize=24;" parent="1" vertex="1">
          <mxGeometry x="540" y="370" width="40" height="40" as="geometry" />
        </mxCell>
        <mxCell id="J-o4-fwsyyXXSoqCmSlc-21" value="&lt;b style=&quot;font-size: 24px;&quot;&gt;9&lt;/b&gt;" style="ellipse;whiteSpace=wrap;html=1;aspect=fixed;strokeWidth=3;fontSize=24;" parent="1" vertex="1">
          <mxGeometry x="160" y="460" width="40" height="40" as="geometry" />
        </mxCell>
        <mxCell id="J-o4-fwsyyXXSoqCmSlc-22" value="&lt;b style=&quot;font-size: 24px;&quot;&gt;5&lt;/b&gt;" style="ellipse;whiteSpace=wrap;html=1;aspect=fixed;strokeWidth=3;fontSize=24;" parent="1" vertex="1">
          <mxGeometry x="290" y="460" width="40" height="40" as="geometry" />
        </mxCell>
        <mxCell id="J-o4-fwsyyXXSoqCmSlc-23" value="&lt;b style=&quot;font-size: 24px;&quot;&gt;2&lt;/b&gt;" style="ellipse;whiteSpace=wrap;html=1;aspect=fixed;strokeWidth=3;fontSize=24;" parent="1" vertex="1">
          <mxGeometry x="420" y="460" width="40" height="40" as="geometry" />
        </mxCell>
        <mxCell id="J-o4-fwsyyXXSoqCmSlc-24" value="&lt;b style=&quot;font-size: 24px;&quot;&gt;4&lt;/b&gt;" style="ellipse;whiteSpace=wrap;html=1;aspect=fixed;strokeWidth=3;fontSize=24;" parent="1" vertex="1">
          <mxGeometry x="540" y="460" width="40" height="40" as="geometry" />
        </mxCell>
        <mxCell id="J-o4-fwsyyXXSoqCmSlc-29" value="" style="curved=1;endArrow=openAsync;html=1;rounded=0;entryX=0;entryY=1;entryDx=0;entryDy=0;exitX=0;exitY=0.5;exitDx=0;exitDy=0;endFill=0;strokeWidth=3;fontSize=24;" parent="1" source="J-o4-fwsyyXXSoqCmSlc-8" target="J-o4-fwsyyXXSoqCmSlc-1" edge="1">
          <mxGeometry width="50" height="50" relative="1" as="geometry">
            <mxPoint x="360" y="310" as="sourcePoint" />
            <mxPoint x="300" y="170" as="targetPoint" />
            <Array as="points">
              <mxPoint x="120" y="190" />
            </Array>
          </mxGeometry>
        </mxCell>
        <mxCell id="J-o4-fwsyyXXSoqCmSlc-36" value="" style="curved=1;endArrow=openAsync;html=1;rounded=0;entryX=0;entryY=0.5;entryDx=0;entryDy=0;exitX=0;exitY=0.5;exitDx=0;exitDy=0;endFill=0;strokeWidth=3;fontSize=24;" parent="1" source="J-o4-fwsyyXXSoqCmSlc-9" target="J-o4-fwsyyXXSoqCmSlc-2" edge="1">
          <mxGeometry width="50" height="50" relative="1" as="geometry">
            <mxPoint x="170" y="310" as="sourcePoint" />
            <mxPoint x="175.85786437626894" y="124.14213562373106" as="targetPoint" />
            <Array as="points">
              <mxPoint x="240" y="210" />
            </Array>
          </mxGeometry>
        </mxCell>
        <mxCell id="J-o4-fwsyyXXSoqCmSlc-38" value="" style="curved=1;endArrow=openAsync;html=1;rounded=0;entryX=0;entryY=0.5;entryDx=0;entryDy=0;exitX=0;exitY=0.5;exitDx=0;exitDy=0;endFill=0;strokeWidth=3;fontSize=24;" parent="1" source="J-o4-fwsyyXXSoqCmSlc-10" target="J-o4-fwsyyXXSoqCmSlc-3" edge="1">
          <mxGeometry width="50" height="50" relative="1" as="geometry">
            <mxPoint x="300" y="310" as="sourcePoint" />
            <mxPoint x="300" y="110" as="targetPoint" />
            <Array as="points">
              <mxPoint x="360" y="210" />
            </Array>
          </mxGeometry>
        </mxCell>
        <mxCell id="J-o4-fwsyyXXSoqCmSlc-39" value="" style="curved=1;endArrow=openAsync;html=1;rounded=0;entryX=0;entryY=0.5;entryDx=0;entryDy=0;endFill=0;exitX=0;exitY=0.5;exitDx=0;exitDy=0;strokeWidth=3;fontSize=24;" parent="1" source="J-o4-fwsyyXXSoqCmSlc-15" target="J-o4-fwsyyXXSoqCmSlc-6" edge="1">
          <mxGeometry width="50" height="50" relative="1" as="geometry">
            <mxPoint x="530" y="300" as="sourcePoint" />
            <mxPoint x="310" y="120" as="targetPoint" />
            <Array as="points">
              <mxPoint x="500" y="210" />
            </Array>
          </mxGeometry>
        </mxCell>
        <mxCell id="J-o4-fwsyyXXSoqCmSlc-40" value="" style="curved=1;endArrow=openAsync;html=1;rounded=0;entryX=0;entryY=1;entryDx=0;entryDy=0;exitX=0;exitY=0.5;exitDx=0;exitDy=0;endFill=0;strokeWidth=3;fontSize=24;" parent="1" source="J-o4-fwsyyXXSoqCmSlc-17" target="J-o4-fwsyyXXSoqCmSlc-1" edge="1">
          <mxGeometry width="50" height="50" relative="1" as="geometry">
            <mxPoint x="320" y="330" as="sourcePoint" />
            <mxPoint x="320" y="130" as="targetPoint" />
            <Array as="points">
              <mxPoint x="30" y="230" />
            </Array>
          </mxGeometry>
        </mxCell>
        <mxCell id="J-o4-fwsyyXXSoqCmSlc-41" value="" style="curved=1;endArrow=openAsync;html=1;rounded=0;exitX=0;exitY=0.5;exitDx=0;exitDy=0;endFill=0;strokeWidth=3;fontSize=24;" parent="1" source="J-o4-fwsyyXXSoqCmSlc-18" edge="1">
          <mxGeometry width="50" height="50" relative="1" as="geometry">
            <mxPoint x="170" y="400" as="sourcePoint" />
            <mxPoint x="290" y="100" as="targetPoint" />
            <Array as="points">
              <mxPoint x="190" y="250" />
            </Array>
          </mxGeometry>
        </mxCell>
        <mxCell id="J-o4-fwsyyXXSoqCmSlc-42" value="" style="curved=1;endArrow=openAsync;html=1;rounded=0;exitX=0;exitY=0.5;exitDx=0;exitDy=0;endFill=0;entryX=0;entryY=1;entryDx=0;entryDy=0;strokeWidth=3;fontSize=24;" parent="1" source="J-o4-fwsyyXXSoqCmSlc-21" target="J-o4-fwsyyXXSoqCmSlc-1" edge="1">
          <mxGeometry width="50" height="50" relative="1" as="geometry">
            <mxPoint x="180" y="410" as="sourcePoint" />
            <mxPoint x="160" y="120" as="targetPoint" />
            <Array as="points">
              <mxPoint x="-20" y="250" />
            </Array>
          </mxGeometry>
        </mxCell>
        <mxCell id="J-o4-fwsyyXXSoqCmSlc-44" value="" style="curved=1;endArrow=openAsync;html=1;rounded=0;exitX=0;exitY=0.5;exitDx=0;exitDy=0;endFill=0;strokeWidth=3;fontSize=24;" parent="1" source="J-o4-fwsyyXXSoqCmSlc-23" edge="1">
          <mxGeometry width="50" height="50" relative="1" as="geometry">
            <mxPoint x="170" y="490" as="sourcePoint" />
            <mxPoint x="420" y="100" as="targetPoint" />
            <Array as="points">
              <mxPoint x="310" y="280" />
            </Array>
          </mxGeometry>
        </mxCell>
        <mxCell id="J-o4-fwsyyXXSoqCmSlc-45" value="" style="curved=1;endArrow=openAsync;html=1;rounded=0;endFill=0;strokeWidth=3;fontSize=24;" parent="1" edge="1">
          <mxGeometry width="50" height="50" relative="1" as="geometry">
            <mxPoint x="288" y="480" as="sourcePoint" />
            <mxPoint x="290" y="100" as="targetPoint" />
            <Array as="points">
              <mxPoint x="170" y="280" />
            </Array>
          </mxGeometry>
        </mxCell>
        <mxCell id="J-o4-fwsyyXXSoqCmSlc-46" value="" style="curved=1;endArrow=openAsync;html=1;rounded=0;exitX=0;exitY=0.5;exitDx=0;exitDy=0;endFill=0;strokeWidth=3;fontSize=24;" parent="1" source="J-o4-fwsyyXXSoqCmSlc-24" edge="1">
          <mxGeometry width="50" height="50" relative="1" as="geometry">
            <mxPoint x="430" y="490" as="sourcePoint" />
            <mxPoint x="540" y="100" as="targetPoint" />
            <Array as="points">
              <mxPoint x="450" y="310" />
            </Array>
          </mxGeometry>
        </mxCell>
        <mxCell id="J-o4-fwsyyXXSoqCmSlc-47" value="" style="endArrow=none;html=1;rounded=0;exitX=0.5;exitY=1;exitDx=0;exitDy=0;entryX=0.5;entryY=0;entryDx=0;entryDy=0;strokeWidth=3;fontSize=24;" parent="1" source="J-o4-fwsyyXXSoqCmSlc-1" target="J-o4-fwsyyXXSoqCmSlc-7" edge="1">
          <mxGeometry width="50" height="50" relative="1" as="geometry">
            <mxPoint x="210" y="130" as="sourcePoint" />
            <mxPoint x="410" y="260" as="targetPoint" />
          </mxGeometry>
        </mxCell>
        <mxCell id="J-o4-fwsyyXXSoqCmSlc-48" value="" style="endArrow=none;html=1;rounded=0;exitX=1;exitY=0.5;exitDx=0;exitDy=0;entryX=0;entryY=0.5;entryDx=0;entryDy=0;strokeWidth=3;fontSize=24;" parent="1" source="J-o4-fwsyyXXSoqCmSlc-1" target="J-o4-fwsyyXXSoqCmSlc-2" edge="1">
          <mxGeometry width="50" height="50" relative="1" as="geometry">
            <mxPoint x="190" y="130" as="sourcePoint" />
            <mxPoint x="190" y="200" as="targetPoint" />
          </mxGeometry>
        </mxCell>
        <mxCell id="J-o4-fwsyyXXSoqCmSlc-49" value="" style="endArrow=none;html=1;rounded=0;exitX=0.5;exitY=1;exitDx=0;exitDy=0;entryX=0.5;entryY=0;entryDx=0;entryDy=0;strokeWidth=3;fontSize=24;" parent="1" source="J-o4-fwsyyXXSoqCmSlc-2" target="J-o4-fwsyyXXSoqCmSlc-11" edge="1">
          <mxGeometry width="50" height="50" relative="1" as="geometry">
            <mxPoint x="200" y="140" as="sourcePoint" />
            <mxPoint x="200" y="210" as="targetPoint" />
          </mxGeometry>
        </mxCell>
        <mxCell id="J-o4-fwsyyXXSoqCmSlc-50" value="" style="endArrow=none;html=1;rounded=0;exitX=0.5;exitY=1;exitDx=0;exitDy=0;entryX=0.5;entryY=0;entryDx=0;entryDy=0;strokeWidth=3;fontSize=24;" parent="1" source="J-o4-fwsyyXXSoqCmSlc-3" target="J-o4-fwsyyXXSoqCmSlc-12" edge="1">
          <mxGeometry width="50" height="50" relative="1" as="geometry">
            <mxPoint x="210" y="150" as="sourcePoint" />
            <mxPoint x="210" y="220" as="targetPoint" />
          </mxGeometry>
        </mxCell>
        <mxCell id="J-o4-fwsyyXXSoqCmSlc-51" value="" style="endArrow=none;html=1;rounded=0;exitX=0.5;exitY=1;exitDx=0;exitDy=0;entryX=0.5;entryY=0;entryDx=0;entryDy=0;strokeWidth=3;fontSize=24;" parent="1" source="J-o4-fwsyyXXSoqCmSlc-6" target="J-o4-fwsyyXXSoqCmSlc-13" edge="1">
          <mxGeometry width="50" height="50" relative="1" as="geometry">
            <mxPoint x="220" y="160" as="sourcePoint" />
            <mxPoint x="220" y="230" as="targetPoint" />
          </mxGeometry>
        </mxCell>
        <mxCell id="J-o4-fwsyyXXSoqCmSlc-52" value="" style="endArrow=none;html=1;rounded=0;exitX=0;exitY=0.5;exitDx=0;exitDy=0;entryX=1;entryY=0.5;entryDx=0;entryDy=0;strokeWidth=3;fontSize=24;" parent="1" source="J-o4-fwsyyXXSoqCmSlc-11" target="J-o4-fwsyyXXSoqCmSlc-7" edge="1">
          <mxGeometry width="50" height="50" relative="1" as="geometry">
            <mxPoint x="230" y="170" as="sourcePoint" />
            <mxPoint x="230" y="240" as="targetPoint" />
          </mxGeometry>
        </mxCell>
        <mxCell id="J-o4-fwsyyXXSoqCmSlc-54" value="" style="endArrow=none;html=1;rounded=0;exitX=0;exitY=0.5;exitDx=0;exitDy=0;entryX=1;entryY=0.5;entryDx=0;entryDy=0;strokeWidth=3;fontSize=24;" parent="1" source="J-o4-fwsyyXXSoqCmSlc-9" target="J-o4-fwsyyXXSoqCmSlc-8" edge="1">
          <mxGeometry width="50" height="50" relative="1" as="geometry">
            <mxPoint x="300" y="220" as="sourcePoint" />
            <mxPoint x="210" y="220" as="targetPoint" />
          </mxGeometry>
        </mxCell>
        <mxCell id="J-o4-fwsyyXXSoqCmSlc-55" value="" style="endArrow=none;html=1;rounded=0;exitX=0;exitY=0.5;exitDx=0;exitDy=0;entryX=1;entryY=0.5;entryDx=0;entryDy=0;strokeWidth=3;fontSize=24;" parent="1" source="J-o4-fwsyyXXSoqCmSlc-18" target="J-o4-fwsyyXXSoqCmSlc-17" edge="1">
          <mxGeometry width="50" height="50" relative="1" as="geometry">
            <mxPoint x="310" y="230" as="sourcePoint" />
            <mxPoint x="220" y="230" as="targetPoint" />
          </mxGeometry>
        </mxCell>
        <mxCell id="J-o4-fwsyyXXSoqCmSlc-56" value="" style="endArrow=none;html=1;rounded=0;entryX=1;entryY=0.5;entryDx=0;entryDy=0;strokeWidth=3;fontSize=24;" parent="1" target="J-o4-fwsyyXXSoqCmSlc-21" edge="1">
          <mxGeometry width="50" height="50" relative="1" as="geometry">
            <mxPoint x="290" y="480" as="sourcePoint" />
            <mxPoint x="230" y="240" as="targetPoint" />
          </mxGeometry>
        </mxCell>
        <mxCell id="J-o4-fwsyyXXSoqCmSlc-57" value="" style="curved=1;endArrow=openAsync;html=1;rounded=0;entryX=0;entryY=0.5;entryDx=0;entryDy=0;exitX=0;exitY=0.5;exitDx=0;exitDy=0;endFill=0;strokeWidth=3;fontSize=24;" parent="1" source="J-o4-fwsyyXXSoqCmSlc-19" target="J-o4-fwsyyXXSoqCmSlc-3" edge="1">
          <mxGeometry width="50" height="50" relative="1" as="geometry">
            <mxPoint x="430" y="310" as="sourcePoint" />
            <mxPoint x="430" y="110" as="targetPoint" />
            <Array as="points">
              <mxPoint x="340" y="230" />
            </Array>
          </mxGeometry>
        </mxCell>
        <mxCell id="J-o4-fwsyyXXSoqCmSlc-58" value="" style="curved=1;endArrow=openAsync;html=1;rounded=0;exitX=0;exitY=0.5;exitDx=0;exitDy=0;endFill=0;strokeWidth=3;fontSize=24;" parent="1" source="J-o4-fwsyyXXSoqCmSlc-20" edge="1">
          <mxGeometry width="50" height="50" relative="1" as="geometry">
            <mxPoint x="550" y="490" as="sourcePoint" />
            <mxPoint x="540" y="100" as="targetPoint" />
            <Array as="points">
              <mxPoint x="480" y="280" />
            </Array>
          </mxGeometry>
        </mxCell>
        <mxCell id="J-o4-fwsyyXXSoqCmSlc-59" value="" style="curved=1;endArrow=openAsync;html=1;rounded=0;exitX=0;exitY=0.5;exitDx=0;exitDy=0;endFill=0;entryX=1;entryY=0.5;entryDx=0;entryDy=0;strokeWidth=3;fontSize=24;" parent="1" source="J-o4-fwsyyXXSoqCmSlc-13" target="J-o4-fwsyyXXSoqCmSlc-7" edge="1">
          <mxGeometry width="50" height="50" relative="1" as="geometry">
            <mxPoint x="560" y="500" as="sourcePoint" />
            <mxPoint x="560" y="120" as="targetPoint" />
            <Array as="points">
              <mxPoint x="390" y="90" />
            </Array>
          </mxGeometry>
        </mxCell>
        <mxCell id="J-o4-fwsyyXXSoqCmSlc-60" value="" style="curved=1;endArrow=openAsync;html=1;rounded=0;exitX=0;exitY=0.5;exitDx=0;exitDy=0;endFill=0;strokeWidth=3;fontSize=24;" parent="1" source="J-o4-fwsyyXXSoqCmSlc-12" edge="1">
          <mxGeometry width="50" height="50" relative="1" as="geometry">
            <mxPoint x="550" y="230" as="sourcePoint" />
            <mxPoint x="200" y="210" as="targetPoint" />
            <Array as="points">
              <mxPoint x="320" y="160" />
            </Array>
          </mxGeometry>
        </mxCell>
        <mxCell id="J-o4-fwsyyXXSoqCmSlc-61" value="" style="curved=1;endArrow=openAsync;html=1;rounded=0;exitX=0;exitY=0.5;exitDx=0;exitDy=0;endFill=0;strokeWidth=3;fontSize=24;" parent="1" source="J-o4-fwsyyXXSoqCmSlc-10" edge="1">
          <mxGeometry width="50" height="50" relative="1" as="geometry">
            <mxPoint x="430" y="230" as="sourcePoint" />
            <mxPoint x="200" y="300" as="targetPoint" />
            <Array as="points">
              <mxPoint x="310" y="230" />
            </Array>
          </mxGeometry>
        </mxCell>
        <mxCell id="J-o4-fwsyyXXSoqCmSlc-62" value="" style="curved=1;endArrow=openAsync;html=1;rounded=0;endFill=0;strokeWidth=3;entryX=1;entryY=0.5;entryDx=0;entryDy=0;fontSize=24;" parent="1" target="J-o4-fwsyyXXSoqCmSlc-8" edge="1">
          <mxGeometry width="50" height="50" relative="1" as="geometry">
            <mxPoint x="540" y="300" as="sourcePoint" />
            <mxPoint x="210" y="310" as="targetPoint" />
            <Array as="points">
              <mxPoint x="370" y="190" />
            </Array>
          </mxGeometry>
        </mxCell>
        <mxCell id="J-o4-fwsyyXXSoqCmSlc-63" value="" style="curved=1;endArrow=openAsync;html=1;rounded=0;exitX=0;exitY=0.5;exitDx=0;exitDy=0;endFill=0;strokeWidth=3;entryX=1;entryY=0.5;entryDx=0;entryDy=0;fontSize=24;" parent="1" source="J-o4-fwsyyXXSoqCmSlc-19" target="J-o4-fwsyyXXSoqCmSlc-17" edge="1">
          <mxGeometry width="50" height="50" relative="1" as="geometry">
            <mxPoint x="430" y="310" as="sourcePoint" />
            <mxPoint x="210" y="310" as="targetPoint" />
            <Array as="points">
              <mxPoint x="340" y="330" />
            </Array>
          </mxGeometry>
        </mxCell>
        <mxCell id="J-o4-fwsyyXXSoqCmSlc-64" value="" style="curved=1;endArrow=openAsync;html=1;rounded=0;endFill=0;strokeWidth=3;fontSize=24;" parent="1" edge="1">
          <mxGeometry width="50" height="50" relative="1" as="geometry">
            <mxPoint x="540" y="390" as="sourcePoint" />
            <mxPoint x="200" y="390" as="targetPoint" />
            <Array as="points">
              <mxPoint x="350" y="290" />
            </Array>
          </mxGeometry>
        </mxCell>
        <mxCell id="J-o4-fwsyyXXSoqCmSlc-65" value="" style="curved=1;endArrow=openAsync;html=1;rounded=0;exitX=0;exitY=0.5;exitDx=0;exitDy=0;endFill=0;strokeWidth=3;fontSize=24;" parent="1" source="J-o4-fwsyyXXSoqCmSlc-23" edge="1">
          <mxGeometry width="50" height="50" relative="1" as="geometry">
            <mxPoint x="430" y="400" as="sourcePoint" />
            <mxPoint x="200" y="482.4000244140625" as="targetPoint" />
            <Array as="points">
              <mxPoint x="310" y="430" />
            </Array>
          </mxGeometry>
        </mxCell>
        <mxCell id="J-o4-fwsyyXXSoqCmSlc-66" value="" style="curved=1;endArrow=openAsync;html=1;rounded=0;exitX=0;exitY=0.5;exitDx=0;exitDy=0;endFill=0;strokeWidth=3;entryX=1;entryY=0.5;entryDx=0;entryDy=0;fontSize=24;" parent="1" source="J-o4-fwsyyXXSoqCmSlc-24" target="J-o4-fwsyyXXSoqCmSlc-21" edge="1">
          <mxGeometry width="50" height="50" relative="1" as="geometry">
            <mxPoint x="430" y="490" as="sourcePoint" />
            <mxPoint x="210" y="480" as="targetPoint" />
            <Array as="points">
              <mxPoint x="340" y="390" />
            </Array>
          </mxGeometry>
        </mxCell>
        <mxCell id="J-o4-fwsyyXXSoqCmSlc-67" value="" style="curved=1;endArrow=openAsync;html=1;rounded=0;exitX=0;exitY=0.5;exitDx=0;exitDy=0;endFill=0;strokeWidth=3;fontSize=24;" parent="1" source="J-o4-fwsyyXXSoqCmSlc-3" edge="1">
          <mxGeometry width="50" height="50" relative="1" as="geometry">
            <mxPoint x="430" y="220" as="sourcePoint" />
            <mxPoint x="200" y="100" as="targetPoint" />
            <Array as="points">
              <mxPoint x="320" y="20" />
            </Array>
          </mxGeometry>
        </mxCell>
        <mxCell id="J-o4-fwsyyXXSoqCmSlc-68" value="" style="curved=1;endArrow=openAsync;html=1;rounded=0;endFill=0;strokeWidth=3;entryX=1;entryY=0.5;entryDx=0;entryDy=0;fontSize=24;" parent="1" target="J-o4-fwsyyXXSoqCmSlc-1" edge="1">
          <mxGeometry width="50" height="50" relative="1" as="geometry">
            <mxPoint x="540" y="100" as="sourcePoint" />
            <mxPoint x="220" y="230" as="targetPoint" />
            <Array as="points">
              <mxPoint x="350" />
            </Array>
          </mxGeometry>
        </mxCell>
        <mxCell id="jO6zTs4HLRxgPEcWTmq_-1" value="&lt;b&gt;8&lt;/b&gt;" style="ellipse;whiteSpace=wrap;html=1;aspect=fixed;strokeWidth=3;fontSize=24;" parent="1" vertex="1">
          <mxGeometry x="660" y="80" width="40" height="40" as="geometry" />
        </mxCell>
        <mxCell id="jO6zTs4HLRxgPEcWTmq_-2" value="&lt;b style=&quot;font-size: 24px;&quot;&gt;&lt;font style=&quot;font-size: 24px;&quot;&gt;1&lt;/font&gt;&lt;/b&gt;" style="ellipse;whiteSpace=wrap;html=1;aspect=fixed;strokeWidth=3;fontSize=24;" parent="1" vertex="1">
          <mxGeometry x="660" y="190" width="40" height="40" as="geometry" />
        </mxCell>
        <mxCell id="jO6zTs4HLRxgPEcWTmq_-3" value="&lt;b style=&quot;font-size: 24px;&quot;&gt;3&lt;/b&gt;" style="ellipse;whiteSpace=wrap;html=1;aspect=fixed;strokeWidth=3;fontSize=24;" parent="1" vertex="1">
          <mxGeometry x="660" y="280" width="40" height="40" as="geometry" />
        </mxCell>
        <mxCell id="jO6zTs4HLRxgPEcWTmq_-4" value="&lt;b style=&quot;font-size: 24px;&quot;&gt;5&lt;/b&gt;" style="ellipse;whiteSpace=wrap;html=1;aspect=fixed;strokeWidth=3;fontSize=24;" parent="1" vertex="1">
          <mxGeometry x="660" y="370" width="40" height="40" as="geometry" />
        </mxCell>
        <mxCell id="jO6zTs4HLRxgPEcWTmq_-5" value="&lt;b style=&quot;font-size: 24px;&quot;&gt;6&lt;/b&gt;" style="ellipse;whiteSpace=wrap;html=1;aspect=fixed;strokeWidth=3;fontSize=24;" parent="1" vertex="1">
          <mxGeometry x="660" y="460" width="40" height="40" as="geometry" />
        </mxCell>
        <mxCell id="jO6zTs4HLRxgPEcWTmq_-6" value="" style="curved=1;endArrow=openAsync;html=1;rounded=0;entryX=0;entryY=0.5;entryDx=0;entryDy=0;endFill=0;exitX=0;exitY=0.5;exitDx=0;exitDy=0;strokeWidth=3;fontSize=24;" parent="1" source="jO6zTs4HLRxgPEcWTmq_-3" target="jO6zTs4HLRxgPEcWTmq_-1" edge="1">
          <mxGeometry width="50" height="50" relative="1" as="geometry">
            <mxPoint x="650" y="300" as="sourcePoint" />
            <mxPoint x="430" y="120" as="targetPoint" />
            <Array as="points">
              <mxPoint x="620" y="210" />
            </Array>
          </mxGeometry>
        </mxCell>
        <mxCell id="jO6zTs4HLRxgPEcWTmq_-7" value="" style="curved=1;endArrow=openAsync;html=1;rounded=0;exitX=0;exitY=0.5;exitDx=0;exitDy=0;endFill=0;strokeWidth=3;fontSize=24;" parent="1" source="jO6zTs4HLRxgPEcWTmq_-5" edge="1">
          <mxGeometry width="50" height="50" relative="1" as="geometry">
            <mxPoint x="550" y="490" as="sourcePoint" />
            <mxPoint x="660" y="100" as="targetPoint" />
            <Array as="points">
              <mxPoint x="570" y="310" />
            </Array>
          </mxGeometry>
        </mxCell>
        <mxCell id="jO6zTs4HLRxgPEcWTmq_-9" value="" style="endArrow=none;html=1;rounded=0;exitX=0.5;exitY=1;exitDx=0;exitDy=0;entryX=0.5;entryY=0;entryDx=0;entryDy=0;strokeWidth=3;fontSize=24;" parent="1" source="jO6zTs4HLRxgPEcWTmq_-1" target="jO6zTs4HLRxgPEcWTmq_-2" edge="1">
          <mxGeometry width="50" height="50" relative="1" as="geometry">
            <mxPoint x="340" y="160" as="sourcePoint" />
            <mxPoint x="340" y="230" as="targetPoint" />
          </mxGeometry>
        </mxCell>
        <mxCell id="jO6zTs4HLRxgPEcWTmq_-10" value="" style="curved=1;endArrow=openAsync;html=1;rounded=0;exitX=0;exitY=0.5;exitDx=0;exitDy=0;endFill=0;strokeWidth=3;fontSize=24;" parent="1" source="jO6zTs4HLRxgPEcWTmq_-4" edge="1">
          <mxGeometry width="50" height="50" relative="1" as="geometry">
            <mxPoint x="670" y="490" as="sourcePoint" />
            <mxPoint x="660" y="100" as="targetPoint" />
            <Array as="points">
              <mxPoint x="600" y="280" />
            </Array>
          </mxGeometry>
        </mxCell>
        <mxCell id="jO6zTs4HLRxgPEcWTmq_-11" value="" style="curved=1;endArrow=openAsync;html=1;rounded=0;endFill=0;strokeWidth=3;fontSize=24;exitX=0;exitY=0.5;exitDx=0;exitDy=0;" parent="1" source="jO6zTs4HLRxgPEcWTmq_-1" edge="1">
          <mxGeometry width="50" height="50" relative="1" as="geometry">
            <mxPoint x="650" y="100" as="sourcePoint" />
            <mxPoint x="200" y="100" as="targetPoint" />
            <Array as="points">
              <mxPoint x="390" y="-30" />
            </Array>
          </mxGeometry>
        </mxCell>
        <mxCell id="jO6zTs4HLRxgPEcWTmq_-12" value="" style="curved=1;endArrow=openAsync;html=1;rounded=0;endFill=0;strokeWidth=3;fontSize=24;exitX=0;exitY=0.281;exitDx=0;exitDy=0;exitPerimeter=0;" parent="1" source="jO6zTs4HLRxgPEcWTmq_-2" edge="1">
          <mxGeometry width="50" height="50" relative="1" as="geometry">
            <mxPoint x="670" y="110" as="sourcePoint" />
            <mxPoint x="200" y="210" as="targetPoint" />
            <Array as="points">
              <mxPoint x="400" y="90" />
            </Array>
          </mxGeometry>
        </mxCell>
        <mxCell id="jO6zTs4HLRxgPEcWTmq_-13" value="" style="curved=1;endArrow=openAsync;html=1;rounded=0;endFill=0;strokeWidth=3;fontSize=24;exitX=0;exitY=0.5;exitDx=0;exitDy=0;entryX=1;entryY=0.5;entryDx=0;entryDy=0;" parent="1" source="jO6zTs4HLRxgPEcWTmq_-3" target="J-o4-fwsyyXXSoqCmSlc-8" edge="1">
          <mxGeometry width="50" height="50" relative="1" as="geometry">
            <mxPoint x="660" y="290" as="sourcePoint" />
            <mxPoint x="210" y="290" as="targetPoint" />
            <Array as="points">
              <mxPoint x="420" y="210" />
            </Array>
          </mxGeometry>
        </mxCell>
        <mxCell id="jO6zTs4HLRxgPEcWTmq_-14" value="" style="curved=1;endArrow=openAsync;html=1;rounded=0;endFill=0;strokeWidth=3;fontSize=24;entryX=1;entryY=0.5;entryDx=0;entryDy=0;" parent="1" target="J-o4-fwsyyXXSoqCmSlc-17" edge="1">
          <mxGeometry width="50" height="50" relative="1" as="geometry">
            <mxPoint x="660" y="390" as="sourcePoint" />
            <mxPoint x="210" y="390" as="targetPoint" />
            <Array as="points">
              <mxPoint x="430" y="300" />
            </Array>
          </mxGeometry>
        </mxCell>
        <mxCell id="jO6zTs4HLRxgPEcWTmq_-15" value="" style="curved=1;endArrow=openAsync;html=1;rounded=0;endFill=0;strokeWidth=3;fontSize=24;" parent="1" edge="1">
          <mxGeometry width="50" height="50" relative="1" as="geometry">
            <mxPoint x="660" y="480" as="sourcePoint" />
            <mxPoint x="210" y="470" as="targetPoint" />
            <Array as="points">
              <mxPoint x="360" y="370" />
            </Array>
          </mxGeometry>
        </mxCell>
        <mxCell id="LfnuJutBR0PMxGktL4o--265" value="&lt;font style=&quot;font-size: 24px;&quot;&gt;&lt;b style=&quot;font-size: 24px&quot;&gt;9&lt;/b&gt;&lt;/font&gt;" style="ellipse;whiteSpace=wrap;html=1;aspect=fixed;strokeWidth=3;fontSize=24;" parent="1" vertex="1">
          <mxGeometry x="160" y="460" width="40" height="40" as="geometry" />
        </mxCell>
        <mxCell id="LfnuJutBR0PMxGktL4o--266" value="&lt;font style=&quot;font-size: 24px;&quot;&gt;&lt;b style=&quot;font-size: 24px&quot;&gt;5&lt;/b&gt;&lt;/font&gt;" style="ellipse;whiteSpace=wrap;html=1;aspect=fixed;strokeWidth=3;fontSize=24;" parent="1" vertex="1">
          <mxGeometry x="290" y="460" width="40" height="40" as="geometry" />
        </mxCell>
        <mxCell id="LfnuJutBR0PMxGktL4o--267" value="&lt;b style=&quot;font-size: 24px;&quot;&gt;&lt;font style=&quot;font-size: 24px;&quot;&gt;2&lt;/font&gt;&lt;/b&gt;" style="ellipse;whiteSpace=wrap;html=1;aspect=fixed;strokeWidth=3;fontSize=24;" parent="1" vertex="1">
          <mxGeometry x="420" y="460" width="40" height="40" as="geometry" />
        </mxCell>
        <mxCell id="LfnuJutBR0PMxGktL4o--268" value="&lt;b style=&quot;font-size: 24px;&quot;&gt;4&lt;/b&gt;" style="ellipse;whiteSpace=wrap;html=1;aspect=fixed;strokeWidth=3;fontSize=24;" parent="1" vertex="1">
          <mxGeometry x="540" y="460" width="40" height="40" as="geometry" />
        </mxCell>
        <mxCell id="LfnuJutBR0PMxGktL4o--269" value="&lt;b style=&quot;font-size: 24px;&quot;&gt;3&lt;/b&gt;" style="ellipse;whiteSpace=wrap;html=1;aspect=fixed;strokeWidth=3;fontSize=24;" parent="1" vertex="1">
          <mxGeometry x="160" y="570" width="40" height="40" as="geometry" />
        </mxCell>
        <mxCell id="LfnuJutBR0PMxGktL4o--270" value="&lt;b style=&quot;font-size: 24px;&quot;&gt;5&lt;/b&gt;" style="ellipse;whiteSpace=wrap;html=1;aspect=fixed;strokeWidth=3;fontSize=24;" parent="1" vertex="1">
          <mxGeometry x="160" y="660" width="40" height="40" as="geometry" />
        </mxCell>
        <mxCell id="LfnuJutBR0PMxGktL4o--271" value="&lt;b style=&quot;font-size: 24px;&quot;&gt;7&lt;/b&gt;" style="ellipse;whiteSpace=wrap;html=1;aspect=fixed;strokeWidth=3;fontSize=24;" parent="1" vertex="1">
          <mxGeometry x="290" y="660" width="40" height="40" as="geometry" />
        </mxCell>
        <mxCell id="LfnuJutBR0PMxGktL4o--272" value="&lt;b style=&quot;font-size: 24px;&quot;&gt;9&lt;/b&gt;" style="ellipse;whiteSpace=wrap;html=1;aspect=fixed;strokeWidth=3;fontSize=24;" parent="1" vertex="1">
          <mxGeometry x="420" y="660" width="40" height="40" as="geometry" />
        </mxCell>
        <mxCell id="LfnuJutBR0PMxGktL4o--273" value="&lt;b style=&quot;font-size: 24px;&quot;&gt;8&lt;/b&gt;" style="ellipse;whiteSpace=wrap;html=1;aspect=fixed;strokeWidth=3;fontSize=24;" parent="1" vertex="1">
          <mxGeometry x="290" y="570" width="40" height="40" as="geometry" />
        </mxCell>
        <mxCell id="LfnuJutBR0PMxGktL4o--274" value="&lt;b style=&quot;font-size: 24px;&quot;&gt;7&lt;/b&gt;" style="ellipse;whiteSpace=wrap;html=1;aspect=fixed;strokeWidth=3;fontSize=24;" parent="1" vertex="1">
          <mxGeometry x="420" y="570" width="40" height="40" as="geometry" />
        </mxCell>
        <mxCell id="LfnuJutBR0PMxGktL4o--275" value="&lt;b style=&quot;font-size: 24px;&quot;&gt;&lt;font style=&quot;font-size: 24px;&quot;&gt;9&lt;/font&gt;&lt;/b&gt;" style="ellipse;whiteSpace=wrap;html=1;aspect=fixed;strokeWidth=3;fontSize=24;" parent="1" vertex="1">
          <mxGeometry x="540" y="570" width="40" height="40" as="geometry" />
        </mxCell>
        <mxCell id="LfnuJutBR0PMxGktL4o--276" value="&lt;b style=&quot;font-size: 24px;&quot;&gt;1&lt;/b&gt;" style="ellipse;whiteSpace=wrap;html=1;aspect=fixed;strokeWidth=3;fontSize=24;" parent="1" vertex="1">
          <mxGeometry x="540" y="660" width="40" height="40" as="geometry" />
        </mxCell>
        <mxCell id="LfnuJutBR0PMxGktL4o--277" value="&lt;b style=&quot;font-size: 24px;&quot;&gt;7&lt;/b&gt;" style="ellipse;whiteSpace=wrap;html=1;aspect=fixed;strokeWidth=3;fontSize=24;" parent="1" vertex="1">
          <mxGeometry x="160" y="750" width="40" height="40" as="geometry" />
        </mxCell>
        <mxCell id="LfnuJutBR0PMxGktL4o--278" value="&lt;b style=&quot;font-size: 24px;&quot;&gt;9&lt;/b&gt;" style="ellipse;whiteSpace=wrap;html=1;aspect=fixed;strokeWidth=3;fontSize=24;" parent="1" vertex="1">
          <mxGeometry x="290" y="750" width="40" height="40" as="geometry" />
        </mxCell>
        <mxCell id="LfnuJutBR0PMxGktL4o--279" value="&lt;b style=&quot;font-size: 24px;&quot;&gt;1&lt;/b&gt;" style="ellipse;whiteSpace=wrap;html=1;aspect=fixed;strokeWidth=3;fontSize=24;" parent="1" vertex="1">
          <mxGeometry x="420" y="750" width="40" height="40" as="geometry" />
        </mxCell>
        <mxCell id="LfnuJutBR0PMxGktL4o--280" value="&lt;b style=&quot;font-size: 24px;&quot;&gt;3&lt;/b&gt;" style="ellipse;whiteSpace=wrap;html=1;aspect=fixed;strokeWidth=3;fontSize=24;" parent="1" vertex="1">
          <mxGeometry x="540" y="750" width="40" height="40" as="geometry" />
        </mxCell>
        <mxCell id="LfnuJutBR0PMxGktL4o--285" value="" style="curved=1;endArrow=openAsync;html=1;rounded=0;entryX=0;entryY=1;entryDx=0;entryDy=0;exitX=0;exitY=0.5;exitDx=0;exitDy=0;endFill=0;strokeWidth=3;fontSize=24;" parent="1" source="LfnuJutBR0PMxGktL4o--270" target="LfnuJutBR0PMxGktL4o--265" edge="1">
          <mxGeometry width="50" height="50" relative="1" as="geometry">
            <mxPoint x="360" y="690" as="sourcePoint" />
            <mxPoint x="300" y="550" as="targetPoint" />
            <Array as="points">
              <mxPoint x="120" y="570" />
            </Array>
          </mxGeometry>
        </mxCell>
        <mxCell id="LfnuJutBR0PMxGktL4o--286" value="" style="curved=1;endArrow=openAsync;html=1;rounded=0;entryX=0;entryY=0.5;entryDx=0;entryDy=0;exitX=0;exitY=0.5;exitDx=0;exitDy=0;endFill=0;strokeWidth=3;fontSize=24;" parent="1" source="LfnuJutBR0PMxGktL4o--271" target="LfnuJutBR0PMxGktL4o--266" edge="1">
          <mxGeometry width="50" height="50" relative="1" as="geometry">
            <mxPoint x="170" y="690" as="sourcePoint" />
            <mxPoint x="175.85786437626894" y="504.14213562373106" as="targetPoint" />
            <Array as="points">
              <mxPoint x="240" y="590" />
            </Array>
          </mxGeometry>
        </mxCell>
        <mxCell id="LfnuJutBR0PMxGktL4o--287" value="" style="curved=1;endArrow=openAsync;html=1;rounded=0;entryX=0;entryY=0.5;entryDx=0;entryDy=0;exitX=0;exitY=0.5;exitDx=0;exitDy=0;endFill=0;strokeWidth=3;fontSize=24;" parent="1" source="LfnuJutBR0PMxGktL4o--272" target="LfnuJutBR0PMxGktL4o--267" edge="1">
          <mxGeometry width="50" height="50" relative="1" as="geometry">
            <mxPoint x="300" y="690" as="sourcePoint" />
            <mxPoint x="300" y="490" as="targetPoint" />
            <Array as="points">
              <mxPoint x="360" y="590" />
            </Array>
          </mxGeometry>
        </mxCell>
        <mxCell id="LfnuJutBR0PMxGktL4o--288" value="" style="curved=1;endArrow=openAsync;html=1;rounded=0;entryX=0;entryY=0.5;entryDx=0;entryDy=0;endFill=0;exitX=0;exitY=0.5;exitDx=0;exitDy=0;strokeWidth=3;fontSize=24;" parent="1" source="LfnuJutBR0PMxGktL4o--276" target="LfnuJutBR0PMxGktL4o--268" edge="1">
          <mxGeometry width="50" height="50" relative="1" as="geometry">
            <mxPoint x="530" y="680" as="sourcePoint" />
            <mxPoint x="310" y="500" as="targetPoint" />
            <Array as="points">
              <mxPoint x="500" y="590" />
            </Array>
          </mxGeometry>
        </mxCell>
        <mxCell id="LfnuJutBR0PMxGktL4o--289" value="" style="curved=1;endArrow=openAsync;html=1;rounded=0;entryX=0;entryY=1;entryDx=0;entryDy=0;exitX=0;exitY=0.5;exitDx=0;exitDy=0;endFill=0;strokeWidth=3;fontSize=24;" parent="1" source="LfnuJutBR0PMxGktL4o--277" target="LfnuJutBR0PMxGktL4o--265" edge="1">
          <mxGeometry width="50" height="50" relative="1" as="geometry">
            <mxPoint x="320" y="710" as="sourcePoint" />
            <mxPoint x="320" y="510" as="targetPoint" />
            <Array as="points">
              <mxPoint x="30" y="610" />
            </Array>
          </mxGeometry>
        </mxCell>
        <mxCell id="LfnuJutBR0PMxGktL4o--290" value="" style="curved=1;endArrow=openAsync;html=1;rounded=0;exitX=0;exitY=0.5;exitDx=0;exitDy=0;endFill=0;strokeWidth=3;fontSize=24;" parent="1" source="LfnuJutBR0PMxGktL4o--278" edge="1">
          <mxGeometry width="50" height="50" relative="1" as="geometry">
            <mxPoint x="170" y="780" as="sourcePoint" />
            <mxPoint x="290" y="480" as="targetPoint" />
            <Array as="points">
              <mxPoint x="190" y="630" />
            </Array>
          </mxGeometry>
        </mxCell>
        <mxCell id="LfnuJutBR0PMxGktL4o--295" value="" style="endArrow=none;html=1;rounded=0;exitX=0.5;exitY=1;exitDx=0;exitDy=0;entryX=0.5;entryY=0;entryDx=0;entryDy=0;strokeWidth=3;fontSize=24;" parent="1" source="LfnuJutBR0PMxGktL4o--265" target="LfnuJutBR0PMxGktL4o--269" edge="1">
          <mxGeometry width="50" height="50" relative="1" as="geometry">
            <mxPoint x="210" y="510" as="sourcePoint" />
            <mxPoint x="410" y="640" as="targetPoint" />
          </mxGeometry>
        </mxCell>
        <mxCell id="LfnuJutBR0PMxGktL4o--296" value="" style="endArrow=none;html=1;rounded=0;exitX=1;exitY=0.5;exitDx=0;exitDy=0;entryX=0;entryY=0.5;entryDx=0;entryDy=0;strokeWidth=3;fontSize=24;" parent="1" source="LfnuJutBR0PMxGktL4o--265" target="LfnuJutBR0PMxGktL4o--266" edge="1">
          <mxGeometry width="50" height="50" relative="1" as="geometry">
            <mxPoint x="190" y="510" as="sourcePoint" />
            <mxPoint x="190" y="580" as="targetPoint" />
          </mxGeometry>
        </mxCell>
        <mxCell id="LfnuJutBR0PMxGktL4o--297" value="" style="endArrow=none;html=1;rounded=0;exitX=0.5;exitY=1;exitDx=0;exitDy=0;entryX=0.5;entryY=0;entryDx=0;entryDy=0;strokeWidth=3;fontSize=24;" parent="1" source="LfnuJutBR0PMxGktL4o--266" target="LfnuJutBR0PMxGktL4o--273" edge="1">
          <mxGeometry width="50" height="50" relative="1" as="geometry">
            <mxPoint x="200" y="520" as="sourcePoint" />
            <mxPoint x="200" y="590" as="targetPoint" />
          </mxGeometry>
        </mxCell>
        <mxCell id="LfnuJutBR0PMxGktL4o--298" value="" style="endArrow=none;html=1;rounded=0;exitX=0.5;exitY=1;exitDx=0;exitDy=0;entryX=0.5;entryY=0;entryDx=0;entryDy=0;strokeWidth=3;fontSize=24;" parent="1" source="LfnuJutBR0PMxGktL4o--267" target="LfnuJutBR0PMxGktL4o--274" edge="1">
          <mxGeometry width="50" height="50" relative="1" as="geometry">
            <mxPoint x="210" y="530" as="sourcePoint" />
            <mxPoint x="210" y="600" as="targetPoint" />
          </mxGeometry>
        </mxCell>
        <mxCell id="LfnuJutBR0PMxGktL4o--299" value="" style="endArrow=none;html=1;rounded=0;exitX=0.5;exitY=1;exitDx=0;exitDy=0;entryX=0.5;entryY=0;entryDx=0;entryDy=0;strokeWidth=3;fontSize=24;" parent="1" source="LfnuJutBR0PMxGktL4o--268" target="LfnuJutBR0PMxGktL4o--275" edge="1">
          <mxGeometry width="50" height="50" relative="1" as="geometry">
            <mxPoint x="220" y="540" as="sourcePoint" />
            <mxPoint x="220" y="610" as="targetPoint" />
          </mxGeometry>
        </mxCell>
        <mxCell id="LfnuJutBR0PMxGktL4o--300" value="" style="endArrow=none;html=1;rounded=0;exitX=0;exitY=0.5;exitDx=0;exitDy=0;entryX=1;entryY=0.5;entryDx=0;entryDy=0;strokeWidth=3;fontSize=24;" parent="1" source="LfnuJutBR0PMxGktL4o--273" target="LfnuJutBR0PMxGktL4o--269" edge="1">
          <mxGeometry width="50" height="50" relative="1" as="geometry">
            <mxPoint x="230" y="550" as="sourcePoint" />
            <mxPoint x="230" y="620" as="targetPoint" />
          </mxGeometry>
        </mxCell>
        <mxCell id="LfnuJutBR0PMxGktL4o--301" value="" style="endArrow=none;html=1;rounded=0;exitX=0;exitY=0.5;exitDx=0;exitDy=0;entryX=1;entryY=0.5;entryDx=0;entryDy=0;strokeWidth=3;fontSize=24;" parent="1" source="LfnuJutBR0PMxGktL4o--271" target="LfnuJutBR0PMxGktL4o--270" edge="1">
          <mxGeometry width="50" height="50" relative="1" as="geometry">
            <mxPoint x="300" y="600" as="sourcePoint" />
            <mxPoint x="210" y="600" as="targetPoint" />
          </mxGeometry>
        </mxCell>
        <mxCell id="LfnuJutBR0PMxGktL4o--302" value="" style="endArrow=none;html=1;rounded=0;exitX=0;exitY=0.5;exitDx=0;exitDy=0;entryX=1;entryY=0.5;entryDx=0;entryDy=0;strokeWidth=3;fontSize=24;" parent="1" source="LfnuJutBR0PMxGktL4o--278" target="LfnuJutBR0PMxGktL4o--277" edge="1">
          <mxGeometry width="50" height="50" relative="1" as="geometry">
            <mxPoint x="310" y="610" as="sourcePoint" />
            <mxPoint x="220" y="610" as="targetPoint" />
          </mxGeometry>
        </mxCell>
        <mxCell id="LfnuJutBR0PMxGktL4o--304" value="" style="curved=1;endArrow=openAsync;html=1;rounded=0;entryX=0;entryY=0.5;entryDx=0;entryDy=0;exitX=0;exitY=0.5;exitDx=0;exitDy=0;endFill=0;strokeWidth=3;fontSize=24;" parent="1" source="LfnuJutBR0PMxGktL4o--279" target="LfnuJutBR0PMxGktL4o--267" edge="1">
          <mxGeometry width="50" height="50" relative="1" as="geometry">
            <mxPoint x="430" y="690" as="sourcePoint" />
            <mxPoint x="430" y="490" as="targetPoint" />
            <Array as="points">
              <mxPoint x="340" y="610" />
            </Array>
          </mxGeometry>
        </mxCell>
        <mxCell id="LfnuJutBR0PMxGktL4o--305" value="" style="curved=1;endArrow=openAsync;html=1;rounded=0;exitX=0;exitY=0.5;exitDx=0;exitDy=0;endFill=0;strokeWidth=3;fontSize=24;" parent="1" source="LfnuJutBR0PMxGktL4o--280" edge="1">
          <mxGeometry width="50" height="50" relative="1" as="geometry">
            <mxPoint x="550" y="870" as="sourcePoint" />
            <mxPoint x="540" y="480" as="targetPoint" />
            <Array as="points">
              <mxPoint x="480" y="660" />
            </Array>
          </mxGeometry>
        </mxCell>
        <mxCell id="LfnuJutBR0PMxGktL4o--306" value="" style="curved=1;endArrow=openAsync;html=1;rounded=0;exitX=0;exitY=0.5;exitDx=0;exitDy=0;endFill=0;entryX=1;entryY=0.5;entryDx=0;entryDy=0;strokeWidth=3;fontSize=24;" parent="1" source="LfnuJutBR0PMxGktL4o--275" target="LfnuJutBR0PMxGktL4o--269" edge="1">
          <mxGeometry width="50" height="50" relative="1" as="geometry">
            <mxPoint x="560" y="880" as="sourcePoint" />
            <mxPoint x="560" y="500" as="targetPoint" />
            <Array as="points">
              <mxPoint x="390" y="470" />
            </Array>
          </mxGeometry>
        </mxCell>
        <mxCell id="LfnuJutBR0PMxGktL4o--307" value="" style="curved=1;endArrow=openAsync;html=1;rounded=0;exitX=0;exitY=0.5;exitDx=0;exitDy=0;endFill=0;strokeWidth=3;fontSize=24;" parent="1" source="LfnuJutBR0PMxGktL4o--274" edge="1">
          <mxGeometry width="50" height="50" relative="1" as="geometry">
            <mxPoint x="550" y="610" as="sourcePoint" />
            <mxPoint x="200" y="590" as="targetPoint" />
            <Array as="points">
              <mxPoint x="320" y="540" />
            </Array>
          </mxGeometry>
        </mxCell>
        <mxCell id="LfnuJutBR0PMxGktL4o--308" value="" style="curved=1;endArrow=openAsync;html=1;rounded=0;exitX=0;exitY=0.5;exitDx=0;exitDy=0;endFill=0;strokeWidth=3;fontSize=24;" parent="1" source="LfnuJutBR0PMxGktL4o--272" edge="1">
          <mxGeometry width="50" height="50" relative="1" as="geometry">
            <mxPoint x="430" y="610" as="sourcePoint" />
            <mxPoint x="200" y="680" as="targetPoint" />
            <Array as="points">
              <mxPoint x="310" y="610" />
            </Array>
          </mxGeometry>
        </mxCell>
        <mxCell id="LfnuJutBR0PMxGktL4o--309" value="" style="curved=1;endArrow=openAsync;html=1;rounded=0;endFill=0;strokeWidth=3;entryX=1;entryY=0.5;entryDx=0;entryDy=0;fontSize=24;" parent="1" target="LfnuJutBR0PMxGktL4o--270" edge="1">
          <mxGeometry width="50" height="50" relative="1" as="geometry">
            <mxPoint x="540" y="680" as="sourcePoint" />
            <mxPoint x="210" y="690" as="targetPoint" />
            <Array as="points">
              <mxPoint x="370" y="570" />
            </Array>
          </mxGeometry>
        </mxCell>
        <mxCell id="LfnuJutBR0PMxGktL4o--310" value="" style="curved=1;endArrow=openAsync;html=1;rounded=0;exitX=0;exitY=0.5;exitDx=0;exitDy=0;endFill=0;strokeWidth=3;entryX=1;entryY=0.5;entryDx=0;entryDy=0;fontSize=24;" parent="1" source="LfnuJutBR0PMxGktL4o--279" target="LfnuJutBR0PMxGktL4o--277" edge="1">
          <mxGeometry width="50" height="50" relative="1" as="geometry">
            <mxPoint x="430" y="690" as="sourcePoint" />
            <mxPoint x="210" y="690" as="targetPoint" />
            <Array as="points">
              <mxPoint x="340" y="710" />
            </Array>
          </mxGeometry>
        </mxCell>
        <mxCell id="LfnuJutBR0PMxGktL4o--311" value="" style="curved=1;endArrow=openAsync;html=1;rounded=0;endFill=0;strokeWidth=3;fontSize=24;" parent="1" edge="1">
          <mxGeometry width="50" height="50" relative="1" as="geometry">
            <mxPoint x="540" y="770" as="sourcePoint" />
            <mxPoint x="200" y="770" as="targetPoint" />
            <Array as="points">
              <mxPoint x="350" y="670" />
            </Array>
          </mxGeometry>
        </mxCell>
        <mxCell id="LfnuJutBR0PMxGktL4o--314" value="" style="curved=1;endArrow=openAsync;html=1;rounded=0;exitX=0;exitY=0.5;exitDx=0;exitDy=0;endFill=0;strokeWidth=3;fontSize=24;" parent="1" source="LfnuJutBR0PMxGktL4o--267" edge="1">
          <mxGeometry width="50" height="50" relative="1" as="geometry">
            <mxPoint x="430" y="600" as="sourcePoint" />
            <mxPoint x="200" y="480" as="targetPoint" />
            <Array as="points">
              <mxPoint x="320" y="400" />
            </Array>
          </mxGeometry>
        </mxCell>
        <mxCell id="LfnuJutBR0PMxGktL4o--315" value="" style="curved=1;endArrow=openAsync;html=1;rounded=0;endFill=0;strokeWidth=3;entryX=1;entryY=0.5;entryDx=0;entryDy=0;fontSize=24;" parent="1" target="LfnuJutBR0PMxGktL4o--265" edge="1">
          <mxGeometry width="50" height="50" relative="1" as="geometry">
            <mxPoint x="540" y="480" as="sourcePoint" />
            <mxPoint x="220" y="610" as="targetPoint" />
            <Array as="points">
              <mxPoint x="350" y="380" />
            </Array>
          </mxGeometry>
        </mxCell>
        <mxCell id="LfnuJutBR0PMxGktL4o--316" value="&lt;b&gt;6&lt;/b&gt;" style="ellipse;whiteSpace=wrap;html=1;aspect=fixed;strokeWidth=3;fontSize=24;" parent="1" vertex="1">
          <mxGeometry x="660" y="460" width="40" height="40" as="geometry" />
        </mxCell>
        <mxCell id="LfnuJutBR0PMxGktL4o--317" value="&lt;b style=&quot;font-size: 24px;&quot;&gt;&lt;font style=&quot;font-size: 24px;&quot;&gt;1&lt;/font&gt;&lt;/b&gt;" style="ellipse;whiteSpace=wrap;html=1;aspect=fixed;strokeWidth=3;fontSize=24;" parent="1" vertex="1">
          <mxGeometry x="660" y="570" width="40" height="40" as="geometry" />
        </mxCell>
        <mxCell id="LfnuJutBR0PMxGktL4o--318" value="&lt;b style=&quot;font-size: 24px;&quot;&gt;3&lt;/b&gt;" style="ellipse;whiteSpace=wrap;html=1;aspect=fixed;strokeWidth=3;fontSize=24;" parent="1" vertex="1">
          <mxGeometry x="660" y="660" width="40" height="40" as="geometry" />
        </mxCell>
        <mxCell id="LfnuJutBR0PMxGktL4o--319" value="&lt;b style=&quot;font-size: 24px;&quot;&gt;5&lt;/b&gt;" style="ellipse;whiteSpace=wrap;html=1;aspect=fixed;strokeWidth=3;fontSize=24;" parent="1" vertex="1">
          <mxGeometry x="660" y="750" width="40" height="40" as="geometry" />
        </mxCell>
        <mxCell id="LfnuJutBR0PMxGktL4o--321" value="" style="curved=1;endArrow=openAsync;html=1;rounded=0;entryX=0;entryY=0.5;entryDx=0;entryDy=0;endFill=0;exitX=0;exitY=0.5;exitDx=0;exitDy=0;strokeWidth=3;fontSize=24;" parent="1" source="LfnuJutBR0PMxGktL4o--318" target="LfnuJutBR0PMxGktL4o--316" edge="1">
          <mxGeometry width="50" height="50" relative="1" as="geometry">
            <mxPoint x="650" y="680" as="sourcePoint" />
            <mxPoint x="430" y="500" as="targetPoint" />
            <Array as="points">
              <mxPoint x="620" y="590" />
            </Array>
          </mxGeometry>
        </mxCell>
        <mxCell id="LfnuJutBR0PMxGktL4o--323" value="" style="endArrow=none;html=1;rounded=0;exitX=0.5;exitY=1;exitDx=0;exitDy=0;entryX=0.5;entryY=0;entryDx=0;entryDy=0;strokeWidth=3;fontSize=24;" parent="1" source="LfnuJutBR0PMxGktL4o--316" target="LfnuJutBR0PMxGktL4o--317" edge="1">
          <mxGeometry width="50" height="50" relative="1" as="geometry">
            <mxPoint x="340" y="540" as="sourcePoint" />
            <mxPoint x="340" y="610" as="targetPoint" />
          </mxGeometry>
        </mxCell>
        <mxCell id="LfnuJutBR0PMxGktL4o--324" value="" style="curved=1;endArrow=openAsync;html=1;rounded=0;exitX=0;exitY=0.5;exitDx=0;exitDy=0;endFill=0;strokeWidth=3;fontSize=24;" parent="1" source="LfnuJutBR0PMxGktL4o--319" edge="1">
          <mxGeometry width="50" height="50" relative="1" as="geometry">
            <mxPoint x="670" y="870" as="sourcePoint" />
            <mxPoint x="660" y="480" as="targetPoint" />
            <Array as="points">
              <mxPoint x="600" y="660" />
            </Array>
          </mxGeometry>
        </mxCell>
        <mxCell id="LfnuJutBR0PMxGktL4o--325" value="" style="curved=1;endArrow=openAsync;html=1;rounded=0;endFill=0;strokeWidth=3;fontSize=24;exitX=0;exitY=0.5;exitDx=0;exitDy=0;" parent="1" source="LfnuJutBR0PMxGktL4o--316" edge="1">
          <mxGeometry width="50" height="50" relative="1" as="geometry">
            <mxPoint x="650" y="480" as="sourcePoint" />
            <mxPoint x="200" y="480" as="targetPoint" />
            <Array as="points">
              <mxPoint x="390" y="350" />
            </Array>
          </mxGeometry>
        </mxCell>
        <mxCell id="LfnuJutBR0PMxGktL4o--326" value="" style="curved=1;endArrow=openAsync;html=1;rounded=0;endFill=0;strokeWidth=3;fontSize=24;exitX=0;exitY=0.281;exitDx=0;exitDy=0;exitPerimeter=0;" parent="1" source="LfnuJutBR0PMxGktL4o--317" edge="1">
          <mxGeometry width="50" height="50" relative="1" as="geometry">
            <mxPoint x="670" y="490" as="sourcePoint" />
            <mxPoint x="200" y="590" as="targetPoint" />
            <Array as="points">
              <mxPoint x="400" y="470" />
            </Array>
          </mxGeometry>
        </mxCell>
        <mxCell id="LfnuJutBR0PMxGktL4o--327" value="" style="curved=1;endArrow=openAsync;html=1;rounded=0;endFill=0;strokeWidth=3;fontSize=24;exitX=0;exitY=0.5;exitDx=0;exitDy=0;entryX=1;entryY=0.5;entryDx=0;entryDy=0;" parent="1" source="LfnuJutBR0PMxGktL4o--318" target="LfnuJutBR0PMxGktL4o--270" edge="1">
          <mxGeometry width="50" height="50" relative="1" as="geometry">
            <mxPoint x="660" y="670" as="sourcePoint" />
            <mxPoint x="210" y="670" as="targetPoint" />
            <Array as="points">
              <mxPoint x="420" y="590" />
            </Array>
          </mxGeometry>
        </mxCell>
        <mxCell id="LfnuJutBR0PMxGktL4o--328" value="" style="curved=1;endArrow=openAsync;html=1;rounded=0;endFill=0;strokeWidth=3;fontSize=24;entryX=1;entryY=0.5;entryDx=0;entryDy=0;" parent="1" target="LfnuJutBR0PMxGktL4o--277" edge="1">
          <mxGeometry width="50" height="50" relative="1" as="geometry">
            <mxPoint x="660" y="770" as="sourcePoint" />
            <mxPoint x="210" y="770" as="targetPoint" />
            <Array as="points">
              <mxPoint x="430" y="680" />
            </Array>
          </mxGeometry>
        </mxCell>
      </root>
    </mxGraphModel>
  </diagram>
</mxfile>
